<?xml version="1.0" encoding="utf-8"?>
<svg xmlns="http://www.w3.org/2000/svg" viewBox="0 0 500 500">
  <g id="group-3" transform="matrix(16.391701, 0, 0, 16.391701, 90.75518, 129.766174)">
    <g id="Page-1" fill="none" fill-rule="evenodd" stroke="none" stroke-width="1">
      <g id="Dribbble-Light-Preview" fill="currentColor" transform="translate(-380 -7803)">
        <g id="icons" transform="translate(56 160)">
          <path id="eyes-[#90]" d="M338.165 7653.11a3.976 3.976 0 0 1-2.746-1.1 6.086 6.086 0 0 0 0-5.81c.37-.35.806-.64 1.29-.83-1.051 1.51-.481 3.66 1.17 4.44 1.609.77 3.569-.09 4.124-1.78.7 2.52-1.221 5.08-3.838 5.08m2.001-6.01c0 1-2.001 1-2.001 0 0-1.01 2.001-1.01 2.001 0m-7.258 4.91c-1.81 1.72-4.803 1.34-6.131-.78-1.318-2.09-.368-4.95 1.929-5.86-1.022 1.47-.514 3.55 1.057 4.39 1.613.85 3.669.01 4.238-1.73a3.998 3.998 0 0 1-1.093 3.98m-1.745-5.92c1 0 1 2.01 0 2.01s-1-2.01 0-2.01m7.002-3.01c-1.539 0-2.939.59-4.001 1.55-3.8-3.42-10.003-.62-10.003 4.47s6.203 7.9 10.003 4.48c3.184 2.86 8.401 1.44 9.713-2.62 1.233-3.83-1.706-7.88-5.712-7.88" style="fill: rgb(255, 255, 255);"/>
        </g>
      </g>
    </g>
  </g>
  <g id="group-5" stroke="none" stroke-width="1" fill="none" fill-rule="evenodd" transform="matrix(16.391676, 0, 0, 16.391676, 681.859802, -323.785614)">
    <g id="group-6" transform="translate(-380.000000, -7803.000000)" fill="currentColor">
      <g id="group-7" transform="translate(56.000000, 160.000000)">
        <path d="M 338.165 7653.11 C 337.1 7653.11 336.136 7652.69 335.419 7652.01 C 336.403 7650.22 336.403 7647.99 335.419 7646.2 C 335.789 7645.85 336.225 7645.56 336.709 7645.37 C 335.658 7646.88 336.228 7649.03 337.879 7649.81 C 339.488 7650.58 341.448 7649.72 342.003 7648.03 C 342.703 7650.55 340.782 7653.11 338.165 7653.11 M 340.166 7647.1 C 340.166 7648.1 338.165 7648.1 338.165 7647.1 C 338.165 7646.09 340.166 7646.09 340.166 7647.1 M 332.908 7652.01 C 331.098 7653.73 328.105 7653.35 326.777 7651.23 C 325.459 7649.14 326.409 7646.28 328.706 7645.37 C 327.684 7646.84 328.192 7648.92 329.763 7649.76 C 331.376 7650.61 333.432 7649.77 334.001 7648.03 C 334.399 7649.46 333.987 7650.98 332.908 7652.01 M 331.163 7646.09 C 332.163 7646.09 332.163 7648.1 331.163 7648.1 C 330.163 7648.1 330.163 7646.09 331.163 7646.09 M 338.165 7643.08 C 336.626 7643.08 335.226 7643.67 334.164 7644.63 C 330.364 7641.21 324.161 7644.01 324.161 7649.1 C 324.161 7654.19 330.364 7657 334.164 7653.58 C 337.348 7656.44 342.565 7655.02 343.877 7650.96 C 345.11 7647.13 342.171 7643.08 338.165 7643.08" id="path-1" style=""/>
      </g>
    </g>
  </g>
  <ellipse style="fill: none; stroke: rgb(218, 218, 218); stroke-width: 22px;" cx="-517.69" cy="-247.5" rx="27.247" ry="27.571" transform="matrix(1, 0, 0, -1, 0, 0)"/>
  <ellipse style="fill: none; stroke: rgb(218, 218, 218); stroke-width: 22px; transform-box: fill-box; transform-origin: 50% 50%;" cx="-7.64" cy="-247.74" rx="25.049" ry="28.885" transform="matrix(0.827879, -0.560907, 0.445707, 0.90593, -442.81575, 488.256104)"/>
  <path fill="none" stroke="currentColor" stroke-linecap="round" stroke-linejoin="round" stroke-width="30" d="M -878.96 310.563 L -776.56 310.563 C -776.11 307.35 -776.11 305.723 -775.66 305.723 C -775.21 305.723 -775.21 304.078 -774.75 304.078 C -774.3 304.078 -774.3 300.802 -773.85 300.802 C -773.4 300.802 -773.4 297.51 -772.95 297.51 C -772.5 297.51 -772.5 294.217 -772.04 294.217 C -771.59 294.217 -771.59 290.937 -771.14 290.937 C -770.69 290.937 -770.69 287.686 -770.24 287.686 C -769.78 287.686 -769.78 284.45 -769.33 284.45 C -768.88 284.45 -768.88 281.215 -768.43 281.215 C -767.98 281.215 -767.98 277.958 -767.53 277.958 C -767.07 277.958 -767.07 274.681 -766.62 274.681 C -766.17 274.681 -766.17 271.387 -765.72 271.387 C -765.27 271.387 -765.27 268.094 -764.82 268.094 C -764.36 268.094 -764.36 264.814 -763.91 264.814 C -763.46 264.814 -763.46 261.564 -763.01 261.564 C -762.56 261.564 -762.56 258.33 -762.11 258.33 C -761.65 258.33 -761.65 255.092 -761.2 255.092 C -760.75 255.092 -760.75 251.836 -760.3 251.836 C -759.85 251.836 -759.85 248.557 -759.39 248.557 C -758.94 248.557 -758.94 245.261 -758.49 245.261 C -758.04 245.261 -758.04 241.961 -757.59 241.961 C -757.13 241.961 -757.13 238.685 -756.68 238.685 C -756.23 238.685 -756.23 235.437 -755.78 235.437 C -755.33 235.437 -755.33 232.207 -754.88 232.207 C -754.42 232.207 -754.42 228.972 -753.97 228.972 C -753.52 228.972 -753.52 225.72 -753.07 225.72 C -752.62 225.72 -752.62 222.439 -752.17 222.439 C -751.71 222.439 -751.71 219.138 -751.26 219.138 C -750.81 219.138 -750.81 215.834 -750.36 215.834 C -749.91 215.834 -749.91 212.557 -749.46 212.557 C -749 212.557 -749 209.312 -748.55 209.312 C -748.1 209.312 -748.1 206.084 -747.65 206.084 C -747.2 206.084 -747.2 202.855 -746.75 202.855 C -746.29 202.855 -746.29 199.605 -745.84 199.605 C -745.39 199.605 -745.39 196.318 -744.94 196.318 C -744.49 196.318 -744.49 193.005 -744.03 193.005 C -743.58 193.005 -743.58 189.698 -743.13 189.698 C -742.68 189.698 -742.68 186.42 -742.23 186.42 C -741.77 186.42 -741.77 183.181 -741.32 183.181 C -740.87 183.181 -740.87 179.965 -740.42 179.965 C -739.97 179.965 -739.97 176.749 -739.52 176.749 C -739.07 176.749 -739.07 173.499 -738.61 173.499 C -738.16 173.499 -738.16 170.204 -737.71 170.204 C -737.26 170.204 -737.26 166.875 -736.81 166.875 C -736.35 166.875 -736.35 163.555 -735.9 163.555 C -735.45 163.555 -735.45 160.276 -735 160.276 C -734.55 160.276 -734.55 157.048 -734.1 157.048 C -733.64 157.048 -733.64 153.855 -733.19 153.855 C -732.74 153.855 -732.74 150.658 -732.29 150.658 C -731.84 150.658 -731.84 147.408 -731.38 147.408 C -730.93 147.408 -730.93 144.084 -730.48 144.084 C -730.03 144.084 -730.03 140.721 -729.58 140.721 C -729.13 140.721 -729.13 137.373 -728.67 137.373 C -728.22 137.373 -728.22 134.101 -727.77 134.101 C -727.32 134.101 -727.32 130.921 -726.87 130.921 C -726.41 130.921 -726.41 127.801 -725.96 127.801 C -725.51 127.801 -725.51 124.644 -725.06 124.644 C -724.61 124.644 -724.61 121.355 -724.16 121.355 C -723.71 121.355 -723.71 117.902 -723.25 117.902 C -722.8 117.902 -722.8 114.393 -722.35 114.393 C -721.9 114.393 -721.9 111.07 -721.45 111.07 C -720.99 111.07 -720.99 108.287 -720.54 108.287 C -720.09 108.287 -720.09 106.422 -719.64 106.422 C -719.19 106.422 -719.19 105.763 -718.74 105.763 C -718.28 105.763 -718.28 106.414 -717.83 106.414 C -717.38 106.414 -717.38 108.274 -716.93 108.274 C -716.48 108.274 -716.48 111.052 -716.02 111.052 C -715.57 111.052 -715.57 114.373 -715.12 114.373 C -714.67 114.373 -714.67 117.882 -714.22 117.882 C -713.77 117.882 -713.77 121.335 -713.31 121.335 C -712.86 121.335 -712.86 124.625 -712.41 124.625 C -711.96 124.625 -711.96 127.783 -711.51 127.783 C -711.05 127.783 -711.05 130.903 -710.6 130.903 C -710.15 130.903 -710.15 134.083 -709.7 134.083 C -709.25 134.083 -709.25 137.354 -708.8 137.354 C -708.35 137.354 -708.35 140.701 -707.89 140.701 C -707.44 140.701 -707.44 144.065 -706.99 144.065 C -706.54 144.065 -706.54 147.389 -706.09 147.389 C -705.63 147.389 -705.63 150.639 -705.18 150.639 C -704.73 150.639 -704.73 153.837 -704.28 153.837 C -703.83 153.837 -703.83 157.029 -703.38 157.029 C -702.92 157.029 -702.92 160.257 -702.47 160.257 C -702.02 160.257 -702.02 163.536 -701.57 163.536 C -701.12 163.536 -701.12 166.856 -700.66 166.856 C -700.21 166.856 -700.21 170.185 -699.76 170.185 C -699.31 170.185 -699.31 173.48 -698.86 173.48 C -698.41 173.48 -698.41 176.73 -697.95 176.73 C -697.5 176.73 -697.5 179.946 -697.05 179.946 C -696.6 179.946 -696.6 183.163 -696.15 183.163 C -695.7 183.163 -695.7 186.401 -695.24 186.401 C -694.79 186.401 -694.79 189.679 -694.34 189.679 C -693.89 189.679 -693.89 192.986 -693.44 192.986 C -692.99 192.986 -692.99 196.299 -692.53 196.299 C -692.08 196.299 -692.08 199.585 -691.63 199.585 C -691.18 199.585 -691.18 202.836 -690.73 202.836 C -690.27 202.836 -690.27 206.066 -689.82 206.066 C -689.37 206.066 -689.37 209.293 -688.92 209.293 C -688.47 209.293 -688.47 212.538 -688.01 212.538 C -687.56 212.538 -687.56 215.815 -687.11 215.815 C -686.66 215.815 -686.66 219.119 -686.21 219.119 C -685.76 219.119 -685.76 222.419 -685.3 222.419 C -684.85 222.419 -684.85 225.701 -684.4 225.701 C -683.95 225.701 -683.95 228.953 -683.5 228.953 C -683.05 228.953 -683.05 232.188 -682.59 232.188 C -682.14 232.188 -682.14 235.418 -681.69 235.418 C -681.24 235.418 -681.24 238.667 -680.79 238.667 C -680.34 238.667 -680.34 241.942 -679.88 241.942 C -679.43 241.942 -679.43 245.242 -678.98 245.242 C -678.53 245.242 -678.53 248.538 -678.08 248.538 C -677.63 248.538 -677.63 251.817 -677.17 251.817 C -676.72 251.817 -676.72 255.073 -676.27 255.073 C -675.82 255.073 -675.82 258.311 -675.37 258.311 C -674.91 258.311 -674.91 261.545 -674.46 261.545 C -674.01 261.545 -674.01 264.795 -673.56 264.795 C -673.11 264.795 -673.11 268.075 -672.65 268.075 C -672.2 268.075 -672.2 271.368 -671.75 271.368 C -671.3 271.368 -671.3 274.662 -670.85 274.662 C -670.4 274.662 -670.4 277.939 -669.95 277.939 C -669.49 277.939 -669.49 281.196 -669.04 281.196 C -668.59 281.196 -668.59 284.431 -668.14 284.431 C -667.69 284.431 -667.69 287.667 -667.23 287.667 C -666.78 287.667 -666.78 290.919 -666.33 290.919 C -665.88 290.919 -665.88 294.198 -665.43 294.198 C -664.98 294.198 -664.98 297.49 -664.52 297.49 C -664.07 297.49 -664.07 300.783 -663.62 300.783 C -663.17 300.783 -663.17 304.063 -662.72 304.063 C -662.26 304.063 -662.26 307.319 -661.81 307.319 C -661.36 307.319 -661.36 310.555 -660.91 310.555 C -660.46 310.555 -660.46 313.791 -660.01 313.791 C -659.55 313.791 -659.55 317.048 -659.1 317.048 C -658.65 317.048 -658.65 320.324 -658.2 320.324 C -657.75 320.324 -657.75 323.616 -657.29 323.616 C -656.84 323.616 -656.84 326.909 -656.39 326.909 C -655.94 326.909 -655.94 330.189 -655.49 330.189 C -655.04 330.189 -655.04 333.44 -654.59 333.44 C -654.13 333.44 -654.13 336.676 -653.68 336.676 C -653.23 336.676 -653.23 339.911 -652.78 339.911 C -652.33 339.911 -652.33 343.168 -651.87 343.168 C -651.42 343.168 -651.42 346.445 -650.97 346.445 C -650.52 346.445 -650.52 349.739 -650.07 349.739 C -649.62 349.739 -649.62 353.032 -649.16 353.032 C -648.71 353.032 -648.71 356.312 -648.26 356.312 C -647.81 356.312 -647.81 359.562 -647.36 359.562 C -646.9 359.562 -646.9 362.796 -646.45 362.796 C -646 362.796 -646 366.034 -645.55 366.034 C -645.1 366.034 -645.1 369.29 -644.65 369.29 C -644.19 369.29 -644.19 372.569 -643.74 372.569 C -643.29 372.569 -643.29 375.865 -642.84 375.865 C -642.39 375.865 -642.39 379.165 -641.93 379.165 C -641.48 379.165 -641.48 382.441 -641.03 382.441 C -640.58 382.441 -640.58 385.689 -640.13 385.689 C -639.68 385.689 -639.68 388.919 -639.23 388.919 C -638.77 388.919 -638.77 392.154 -638.32 392.154 C -637.87 392.154 -637.87 395.406 -637.42 395.406 C -636.97 395.406 -636.97 398.687 -636.51 398.687 C -636.06 398.687 -636.06 401.988 -635.61 401.988 C -635.16 401.988 -635.16 405.292 -634.71 405.292 C -634.25 405.292 -634.25 408.569 -633.8 408.569 C -633.35 408.569 -633.35 411.814 -632.9 411.814 C -632.45 411.814 -632.45 415.042 -632 415.042 C -631.54 415.042 -631.54 418.271 -631.09 418.271 C -630.64 418.271 -630.64 421.521 -630.19 421.521 C -629.74 421.521 -629.74 424.808 -629.29 424.808 C -628.83 424.808 -628.83 428.121 -628.38 428.121 C -627.93 428.121 -627.93 431.428 -627.48 431.428 C -627.03 431.428 -627.03 434.706 -626.58 434.706 C -626.12 434.706 -626.12 437.945 -625.67 437.945 C -625.22 437.945 -625.22 441.161 -624.77 441.161 C -624.32 441.161 -624.32 444.377 -623.87 444.377 C -623.41 444.377 -623.41 447.627 -622.96 447.627 C -622.51 447.627 -622.51 450.922 -622.06 450.922 C -621.61 450.922 -621.61 454.251 -621.15 454.251 C -620.7 454.251 -620.7 457.571 -620.25 457.571 C -619.8 457.571 -619.8 460.85 -619.35 460.85 C -618.89 460.85 -618.89 464.078 -618.44 464.078 C -617.99 464.078 -617.99 467.271 -617.54 467.271 C -617.09 467.271 -617.09 470.468 -616.64 470.468 C -616.18 470.468 -616.18 473.718 -615.73 473.718 C -615.28 473.718 -615.28 477.042 -614.83 477.042 C -614.38 477.042 -614.38 480.405 -613.93 480.405 C -613.47 480.405 -613.47 483.753 -613.02 483.753 C -612.57 483.753 -612.57 487.025 -612.12 487.025 C -611.67 487.025 -611.67 490.205 -611.22 490.205 C -610.76 490.205 -610.76 493.325 -610.31 493.325 C -609.86 493.325 -609.86 496.482 -609.41 496.482 C -608.96 496.482 -608.96 499.771 -608.5 499.771 C -608.05 499.771 -608.05 503.224 -607.6 503.224 C -607.15 503.224 -607.15 506.733 -606.7 506.733 C -606.25 506.733 -606.25 510.056 -605.79 510.056 C -605.34 510.056 -605.34 512.839 -604.89 512.839 C -604.44 512.839 -604.44 514.704 -603.99 514.704 C -603.53 514.704 -603.53 515.363 -603.08 515.363 C -602.63 515.363 -602.63 514.712 -602.18 514.712 C -601.73 514.712 -601.73 512.852 -601.28 512.852 C -600.83 512.852 -600.83 510.074 -600.37 510.074 C -599.92 510.074 -599.92 506.753 -599.47 506.753 C -599.02 506.753 -599.02 503.244 -598.57 503.244 C -598.11 503.244 -598.11 499.791 -597.66 499.791 C -597.21 499.791 -597.21 496.501 -596.76 496.501 C -596.31 496.501 -596.31 493.343 -595.86 493.343 C -595.4 493.343 -595.4 490.223 -594.95 490.223 C -594.5 490.223 -594.5 487.043 -594.05 487.043 C -593.6 487.043 -593.6 483.772 -593.14 483.772 C -592.69 483.772 -592.69 480.425 -592.24 480.425 C -591.79 480.425 -591.79 477.061 -591.34 477.061 C -590.89 477.061 -590.89 473.737 -590.43 473.737 C -589.98 473.737 -589.98 470.487 -589.53 470.487 C -589.08 470.487 -589.08 467.289 -588.63 467.289 C -588.17 467.289 -588.17 464.097 -587.72 464.097 C -587.27 464.097 -587.27 460.869 -586.82 460.869 C -586.37 460.869 -586.37 457.59 -585.92 457.59 C -585.47 457.59 -585.47 454.27 -585.01 454.27 C -584.56 454.27 -584.56 450.941 -584.11 450.941 C -583.66 450.941 -583.66 447.646 -583.21 447.646 C -582.75 447.646 -582.75 444.396 -582.3 444.396 C -581.85 444.396 -581.85 441.18 -581.4 441.18 C -580.95 441.18 -580.95 437.963 -580.5 437.963 C -580.04 437.963 -580.04 434.725 -579.59 434.725 C -579.14 434.725 -579.14 431.447 -578.69 431.447 C -578.24 431.447 -578.24 428.14 -577.78 428.14 C -577.33 428.14 -577.33 424.827 -576.88 424.827 C -576.43 424.827 -576.43 421.541 -575.98 421.541 C -575.53 421.541 -575.53 418.29 -575.07 418.29 C -574.62 418.29 -574.62 415.06 -574.17 415.06 C -573.72 415.06 -573.72 411.833 -573.27 411.833 C -572.82 411.833 -572.82 408.588 -572.36 408.588 C -571.91 408.588 -571.91 405.311 -571.46 405.311 C -571.01 405.311 -571.01 402.007 -570.56 402.007 C -570.11 402.007 -570.11 398.707 -569.65 398.707 C -569.2 398.707 -569.2 395.425 -568.75 395.425 C -568.3 395.425 -568.3 392.173 -567.85 392.173 C -567.39 392.173 -567.39 388.938 -566.94 388.938 C -566.49 388.938 -566.49 385.708 -566.04 385.708 C -565.59 385.708 -565.59 382.459 -565.13 382.459 C -564.68 382.459 -564.68 379.184 -564.23 379.184 C -563.78 379.184 -563.78 375.884 -563.33 375.884 C -562.88 375.884 -562.88 372.588 -562.42 372.588 C -561.97 372.588 -561.97 369.309 -561.52 369.309 C -561.07 369.309 -561.07 366.053 -560.62 366.053 C -560.17 366.053 -560.17 362.815 -559.71 362.815 C -559.26 362.815 -559.26 359.581 -558.81 359.581 C -558.36 359.581 -558.36 356.331 -557.91 356.331 C -557.46 356.331 -557.46 353.051 -557 353.051 C -556.55 353.051 -556.55 349.758 -556.1 349.758 C -555.65 349.758 -555.65 346.464 -555.2 346.464 C -554.75 346.464 -554.75 343.187 -554.29 343.187 C -553.84 343.187 -553.84 339.93 -553.39 339.93 C -552.94 339.93 -552.94 336.695 -552.49 336.695 C -552.03 336.695 -552.03 333.459 -551.58 333.459 C -551.13 333.459 -551.13 330.207 -550.68 330.207 C -550.23 330.207 -550.23 326.928 -549.77 326.928 C -549.32 326.928 -549.32 323.636 -548.87 323.636 C -548.42 323.636 -548.42 320.343 -547.97 320.343 C -547.52 320.343 -547.52 318.688 -547.07 318.688 C -546.61 318.688 -546.61 317.036 -546.16 317.036 L -546.16 310.563 L -443.76 310.563" style="stroke-width: 30;"/>
  <path fill="currentColor" fill-rule="evenodd" stroke="currentColor" stroke-width=".56" d="M 487.037 -111.55 C 479.887 -111.55 472.997 -114.31 467.817 -119.25 C 474.707 -131.93 474.707 -147.24 467.817 -159.92 C 470.407 -162.37 473.457 -164.4 476.847 -165.73 C 469.487 -155.16 473.477 -140.11 485.037 -134.65 C 496.297 -129.26 510.027 -135.28 513.907 -147.11 C 518.807 -129.47 505.357 -111.55 487.037 -111.55 M 501.047 -153.62 C 501.047 -146.62 487.037 -146.62 487.037 -153.62 C 487.037 -160.69 501.047 -160.69 501.047 -153.62 M 450.237 -119.25 C 437.577 -107.21 416.617 -109.87 407.327 -124.71 C 398.097 -139.34 404.747 -159.36 420.827 -165.73 C 413.677 -155.44 417.227 -140.88 428.227 -135 C 439.517 -129.05 453.907 -134.93 457.897 -147.11 C 460.707 -137.12 457.757 -126.4 450.237 -119.25 M 438.027 -160.69 C 445.027 -160.69 445.027 -146.62 438.027 -146.62 C 431.027 -146.62 431.027 -160.69 438.027 -160.69 M 487.037 -181.76 C 476.267 -181.76 466.467 -177.63 459.037 -170.91 C 432.437 -194.85 389.017 -175.25 389.017 -139.62 C 389.017 -103.99 432.437 -84.32 459.037 -108.26 C 481.327 -88.24 517.837 -98.18 527.027 -126.6 C 535.657 -153.41 515.087 -181.76 487.037 -181.76" style="stroke-width: 0.56;"/>
</svg>