<?xml version="1.0" encoding="utf-8"?>
<svg xmlns="http://www.w3.org/2000/svg" viewBox="5.9998 37.5 499.9998 437.1112" width="500px" height="437.111px" preserveAspectRatio="none">
  <g transform="matrix(1.092778, 0, 0, 1.092778, -306.561841, -464.559244)" id="object-0">
    <g transform="matrix(20, 0, 0, 20, 266.024872, 419.433899)">
      <path fill-rule="evenodd" clip-rule="evenodd" d="M9 2C9.43043 2 9.81257 2.27543 9.94868 2.68377L15 17.8377L17.0513 11.6838C17.1874 11.2754 17.5696 11 18 11H22C22.5523 11 23 11.4477 23 12C23 12.5523 22.5523 13 22 13H18.7208L15.9487 21.3162C15.8126 21.7246 15.4304 22 15 22C14.5696 22 14.1874 21.7246 14.0513 21.3162L9 6.16228L6.94868 12.3162C6.81257 12.7246 6.43043 13 6 13H2C1.44772 13 1 12.5523 1 12C1 11.4477 1.44772 11 2 11H5.27924L8.05132 2.68377C8.18743 2.27543 8.56957 2 9 2Z" style="" fill="currentColor"/>
    </g>
    <g transform="matrix(7.5, 0, 0, 7.5, 592.364746, 535.046143)">
      <g stroke="none" stroke-width="1" fill="none" fill-rule="evenodd">
        <g id="Dribbble-Light-Preview" transform="translate(-380.000000, -7803.000000)">
          <g id="icons" transform="translate(56.000000, 160.000000)">
            <path d="M 338.165 7653.11 C 337.1 7653.11 336.136 7652.69 335.419 7652.01 C 336.403 7650.22 336.403 7647.99 335.419 7646.2 C 335.789 7645.85 336.225 7645.56 336.709 7645.37 C 335.658 7646.88 336.228 7649.03 337.879 7649.81 C 339.488 7650.58 341.448 7649.72 342.003 7648.03 C 342.703 7650.55 340.782 7653.11 338.165 7653.11 M 340.166 7647.1 C 340.166 7648.1 338.165 7648.1 338.165 7647.1 C 338.165 7646.09 340.166 7646.09 340.166 7647.1 M 332.908 7652.01 C 331.098 7653.73 328.105 7653.35 326.777 7651.23 C 325.459 7649.14 326.409 7646.28 328.706 7645.37 C 327.684 7646.84 328.192 7648.92 329.763 7649.76 C 331.376 7650.61 333.432 7649.77 334.001 7648.03 C 334.399 7649.46 333.987 7650.98 332.908 7652.01 M 331.163 7646.09 C 332.163 7646.09 332.163 7648.1 331.163 7648.1 C 330.163 7648.1 330.163 7646.09 331.163 7646.09 M 338.165 7643.08 C 336.626 7643.08 335.226 7643.67 334.164 7644.63 C 330.364 7641.21 324.161 7644.01 324.161 7649.1 C 324.161 7654.19 330.364 7657 334.164 7653.58 C 337.348 7656.44 342.565 7655.02 343.877 7650.96 C 345.11 7647.13 342.171 7643.08 338.165 7643.08" id="eyes-[#90]" fill="currentColor"/>
          </g>
        </g>
      </g>
    </g>
  </g>
</svg>
