    <svg
      id="custom-function"
      xmlns="http://www.w3.org/2000/svg"
      viewBox="0 0 512 512"
      width="512px"
      height="512px"
    >
      <path
        fill="none"
        stroke="currentColor"
        stroke-linecap="round"
        stroke-linejoin="round"
        stroke-width="30"
        d="M38.4 256h102.4c.452-5.02.452-7.528.904-7.528.451 0 .451-2.511.903-2.511s.452-5.015.904-5.015c.451 0 .451-5.006.903-5.006s.452-4.994.904-4.994c.451 0 .451-4.985.903-4.985s.452-4.96.904-4.96c.451 0 .451-4.94.903-4.94s.452-4.916.904-4.916.452-4.894.903-4.894c.452 0 .452-4.86.904-4.86s.452-4.825.903-4.825c.452 0 .452-4.79.904-4.79s.452-4.757.903-4.757c.452 0 .452-4.71.904-4.71s.452-4.665.903-4.665c.452 0 .452-4.624.904-4.624s.452-4.573.904-4.573c.451 0 .451-4.516.903-4.516s.452-4.46.904-4.46c.451 0 .451-4.407.903-4.407s.452-4.341.904-4.341c.451 0 .451-4.278.903-4.278s.452-4.212.904-4.212c.451 0 .451-4.148.903-4.148s.452-4.072.904-4.072.452-4 .903-4c.452 0 .452-3.922.904-3.922s.452-3.85.903-3.85c.452 0 .452-3.764.904-3.764s.452-3.681.903-3.681c.452 0 .452-3.601.904-3.601s.452-3.513.903-3.513c.452 0 .452-3.42.904-3.42s.452-3.329.904-3.329c.451 0 .451-3.239.903-3.239s.452-3.14.904-3.14c.451 0 .451-3.042.903-3.042s.452-2.944.904-2.944c.451 0 .451-2.846.903-2.846s.452-2.74.904-2.74c.451 0 .451-2.636.903-2.636s.452-2.531.904-2.531.452-2.426.903-2.426c.452 0 .452-2.314.904-2.314s.452-2.204.903-2.204c.452 0 .452-2.095.904-2.095s.452-1.983.903-1.983c.452 0 .452-1.866.904-1.866s.452-1.75.903-1.75c.452 0 .452-1.637.904-1.637s.452-1.518.904-1.518c.451 0 .451-1.4.903-1.4s.452-1.28.904-1.28c.451 0 .451-1.163.903-1.163s.452-1.041.904-1.041c.451 0 .451-.92.903-.92s.452-.799.904-.799c.451 0 .451-.677.903-.677s.452-.554.904-.554.452-.432.903-.432c.452 0 .452-.308.904-.308s.452-.186.903-.186c.452 0 .452-.062.904-.062s.452.061.903.061c.452 0 .452.185.904.185s.452.308.903.308c.452 0 .452.43.904.43s.452.554.904.554c.451 0 .451.677.903.677s.452.798.904.798c.451 0 .451.92.903.92s.452 1.04.904 1.04c.451 0 .451 1.161.903 1.161s.452 1.28.904 1.28c.451 0 .451 1.4.903 1.4s.452 1.517.904 1.517.452 1.636.903 1.636c.452 0 .452 1.75.904 1.75s.452 1.865.903 1.865c.452 0 .452 1.982.904 1.982s.452 2.094.903 2.094c.452 0 .452 2.204.904 2.204s.452 2.313.903 2.313c.452 0 .452 2.426.904 2.426s.452 2.53.904 2.53c.451 0 .451 2.635.903 2.635s.452 2.74.904 2.74c.451 0 .451 2.845.903 2.845s.452 2.943.904 2.943c.451 0 .451 3.042.903 3.042s.452 3.14.904 3.14c.451 0 .451 3.238.903 3.238s.452 3.328.904 3.328.452 3.42.903 3.42c.452 0 .452 3.512.904 3.512s.452 3.6.903 3.6c.452 0 .452 3.681.904 3.681s.452 3.764.903 3.764c.452 0 .452 3.849.904 3.849s.452 3.923.903 3.923c.452 0 .452 3.998.904 3.998s.452 4.072.904 4.072c.451 0 .451 4.148.903 4.148s.452 4.211.904 4.211c.451 0 .451 4.278.903 4.278s.452 4.34.904 4.34c.451 0 .451 4.407.903 4.407s.452 4.46.904 4.46c.451 0 .451 4.515.903 4.515s.452 4.574.904 4.574.452 4.623.903 4.623c.452 0 .452 4.665.904 4.665s.452 4.71.903 4.71c.452 0 .452 4.756.904 4.756s.452 4.79.903 4.79c.452 0 .452 4.826.904 4.826s.452 4.858.903 4.858c.452 0 .452 4.894.904 4.894s.452 4.916.904 4.916c.451 0 .451 4.94.903 4.94s.452 4.96.904 4.96c.451 0 .451 4.985.903 4.985s.452 4.993.904 4.993c.451 0 .451 5.006.903 5.006s.452 5.021.904 5.021c.451 0 .451 5.027.903 5.027s.452 5.024.904 5.024.452 5.024.903 5.024c.452 0 .452 5.027.904 5.027s.452 5.015.903 5.015c.452 0 .452 5.006.904 5.006s.452 4.994.903 4.994c.452 0 .452 4.985.904 4.985s.452 4.96.903 4.96c.452 0 .452 4.94.904 4.94s.452 4.916.904 4.916c.451 0 .451 4.894.903 4.894s.452 4.86.904 4.86c.451 0 .451 4.825.903 4.825s.452 4.79.904 4.79c.451 0 .451 4.757.903 4.757s.452 4.71.904 4.71c.451 0 .451 4.665.903 4.665s.452 4.624.904 4.624.452 4.573.903 4.573c.452 0 .452 4.516.904 4.516s.452 4.46.903 4.46c.452 0 .452 4.407.904 4.407s.452 4.341.903 4.341c.452 0 .452 4.278.904 4.278s.452 4.212.903 4.212c.452 0 .452 4.148.904 4.148s.452 4.072.904 4.072c.451 0 .451 4 .903 4s.452 3.922.904 3.922c.451 0 .451 3.85.903 3.85s.452 3.764.904 3.764c.451 0 .451 3.681.903 3.681s.452 3.601.904 3.601c.451 0 .451 3.513.903 3.513s.452 3.42.904 3.42.452 3.329.903 3.329c.452 0 .452 3.239.904 3.239s.452 3.14.903 3.14c.452 0 .452 3.042.904 3.042s.452 2.944.903 2.944c.452 0 .452 2.846.904 2.846s.452 2.74.903 2.74c.452 0 .452 2.636.904 2.636s.452 2.531.904 2.531c.451 0 .451 2.426.903 2.426s.452 2.314.904 2.314c.451 0 .451 2.204.903 2.204s.452 2.095.904 2.095c.451 0 .451 1.983.903 1.983s.452 1.866.904 1.866c.451 0 .451 1.75.903 1.75s.452 1.637.904 1.637.452 1.518.903 1.518c.452 0 .452 1.4.904 1.4s.452 1.28.903 1.28c.452 0 .452 1.163.904 1.163s.452 1.041.903 1.041c.452 0 .452.92.904.92s.452.799.903.799c.452 0 .452.677.904.677s.452.554.904.554c.451 0 .451.432.903.432s.452.308.904.308c.451 0 .451.186.903.186s.452.062.904.062c.451 0 .451-.061.903-.061s.452-.185.904-.185c.451 0 .451-.308.903-.308s.452-.43.904-.43.452-.554.903-.554c.452 0 .452-.677.904-.677s.452-.798.903-.798c.452 0 .452-.92.904-.92s.452-1.04.903-1.04c.452 0 .452-1.161.904-1.161s.452-1.28.903-1.28c.452 0 .452-1.4.904-1.4s.452-1.517.904-1.517c.451 0 .451-1.636.903-1.636s.452-1.75.904-1.75c.451 0 .451-1.865.903-1.865s.452-1.982.904-1.982c.451 0 .451-2.094.903-2.094s.452-2.204.904-2.204c.451 0 .451-2.313.903-2.313s.452-2.426.904-2.426.452-2.53.903-2.53c.452 0 .452-2.635.904-2.635s.452-2.74.903-2.74c.452 0 .452-2.845.904-2.845s.452-2.943.903-2.943c.452 0 .452-3.042.904-3.042s.452-3.14.903-3.14c.452 0 .452-3.238.904-3.238s.452-3.328.904-3.328c.451 0 .451-3.42.903-3.42s.452-3.512.904-3.512c.451 0 .451-3.6.903-3.6s.452-3.681.904-3.681c.451 0 .451-3.764.903-3.764s.452-3.849.904-3.849c.451 0 .451-3.923.903-3.923s.452-3.998.904-3.998.452-4.072.903-4.072c.452 0 .452-4.148.904-4.148s.452-4.211.903-4.211c.452 0 .452-4.278.904-4.278s.452-4.34.903-4.34c.452 0 .452-4.407.904-4.407s.452-4.46.903-4.46c.452 0 .452-4.515.904-4.515s.452-4.574.904-4.574c.451 0 .451-4.623.903-4.623s.452-4.665.904-4.665c.451 0 .451-4.71.903-4.71s.452-4.756.904-4.756c.451 0 .451-4.79.903-4.79s.452-4.826.904-4.826c.451 0 .451-4.858.903-4.858s.452-4.894.904-4.894.452-4.916.903-4.916c.452 0 .452-4.94.904-4.94s.452-4.96.903-4.96c.452 0 .452-4.985.904-4.985s.452-4.993.903-4.993c.452 0 .452-5.006.904-5.006s.452-2.506.903-2.506c.452 0 .452-2.511.904-2.511V256h102.4"
      />
      <path
        fill="currentColor"
        fill-rule="evenodd"
        d="M460.115 211.57a27.832 27.832 0 0 1-19.222-7.7 42.602 42.602 0 0 0 0-40.67c2.59-2.45 5.642-4.48 9.03-5.81-7.357 10.57-3.367 25.62 8.19 31.08 11.263 5.39 24.983-.63 28.868-12.46 4.9 17.64-8.547 35.56-26.866 35.56m14.007-42.07c0 7-14.007 7-14.007 0 0-7.07 14.007-7.07 14.007 0m-50.806 34.37c-12.67 12.04-33.621 9.38-42.917-5.46-9.226-14.63-2.576-34.65 13.503-41.02-7.154 10.29-3.598 24.85 7.399 30.73 11.291 5.95 25.683.07 29.666-12.11a27.986 27.986 0 0 1-7.651 27.86m-12.215-41.44c7 0 7 14.07 0 14.07s-7-14.07 0-14.07m49.014-21.07c-10.773 0-20.573 4.13-28.007 10.85-26.6-23.94-70.021-4.34-70.021 31.29s43.421 55.3 70.021 31.36c22.288 20.02 58.807 10.08 67.991-18.34 8.631-26.81-11.942-55.16-39.984-55.16"
      />
    </svg>