    <svg
      id="random-harmonic"
      xmlns="http://www.w3.org/2000/svg"
      viewBox="0 0 512 512"
      width="512px"
      height="512px"
    >
      <path
        fill="none"
        stroke="currentColor"
        stroke-linecap="round"
        stroke-linejoin="round"
        stroke-width="30"
        d="M38.4 256h102.4c4.8 154.3 4.8 134.742 9.6 134.742s4.8-64.051 9.6-64.051 4.8-58.647 9.6-58.647 4.8-70.652 9.6-70.652 4.8-77.977 9.6-77.977 4.8-52.144 9.6-52.144 4.8 23.677 9.6 23.677 4.8 55.706 9.6 55.706 4.8 65.91 9.6 65.91 4.8 99.32 9.6 99.32 4.8 87.227 9.6 87.227 4.8 53.832 9.6 53.832 4.8 7.857 9.6 7.857 4.8-59.522 9.6-59.522 4.8-104.827 9.6-104.827 4.8-99.06 9.6-99.06 4.8-73.97 9.6-73.97 4.8-59.162 9.6-59.162 4.8 14.218 9.6 14.218 4.8 71.952 9.6 71.952 4.8 59.606 9.6 59.606c4.8 45.965 4.8 75.961 9.6 75.961s4.8 35.2 9.6 35.2 4.8 31.278 9.6 31.278V256h102.4"
      />
      <path
        fill="currentColor"
        fill-rule="evenodd"
        d="M460.115 211.57a27.832 27.832 0 0 1-19.222-7.7 42.602 42.602 0 0 0 0-40.67c2.59-2.45 5.642-4.48 9.03-5.81-7.357 10.57-3.367 25.62 8.19 31.08 11.263 5.39 24.983-.63 28.868-12.46 4.9 17.64-8.547 35.56-26.866 35.56m14.007-42.07c0 7-14.007 7-14.007 0 0-7.07 14.007-7.07 14.007 0m-50.806 34.37c-12.67 12.04-33.621 9.38-42.917-5.46-9.226-14.63-2.576-34.65 13.503-41.02-7.154 10.29-3.598 24.85 7.399 30.73 11.291 5.95 25.683.07 29.666-12.11a27.986 27.986 0 0 1-7.651 27.86m-12.215-41.44c7 0 7 14.07 0 14.07s-7-14.07 0-14.07m49.014-21.07c-10.773 0-20.573 4.13-28.007 10.85-26.6-23.94-70.021-4.34-70.021 31.29s43.421 55.3 70.021 31.36c22.288 20.02 58.807 10.08 67.991-18.34 8.631-26.81-11.942-55.16-39.984-55.16"
      />
    </svg>
