<svg
id="triangle"
xmlns="http://www.w3.org/2000/svg"
viewBox="0 0 512 512"
width="512px"
height="512px"
>
<path
fill="none"
stroke="currentColor"
stroke-linecap="round"
stroke-linejoin="round"
stroke-width="30"
d="M38.4 256h102.4c.452-3.213.452-4.84.904-4.84.451 0 .451-1.645.903-1.645s.452-3.276.904-3.276c.451 0 .451-3.292.903-3.292s.452-3.293.904-3.293c.451 0 .451-3.28.903-3.28s.452-3.251.904-3.251c.451 0 .451-3.236.903-3.236s.452-3.235.904-3.235.452-3.257.903-3.257c.452 0 .452-3.277.904-3.277s.452-3.294.903-3.294c.452 0 .452-3.293.904-3.293s.452-3.28.903-3.28c.452 0 .452-3.25.904-3.25s.452-3.234.903-3.234c.452 0 .452-3.238.904-3.238s.452-3.256.904-3.256c.451 0 .451-3.279.903-3.279s.452-3.296.904-3.296c.451 0 .451-3.3.903-3.3s.452-3.276.904-3.276c.451 0 .451-3.248.903-3.248s.452-3.23.904-3.23c.451 0 .451-3.235.903-3.235s.452-3.252.904-3.252.452-3.281.903-3.281c.452 0 .452-3.301.904-3.301s.452-3.304.903-3.304c.452 0 .452-3.277.904-3.277s.452-3.245.903-3.245c.452 0 .452-3.228.904-3.228s.452-3.229.903-3.229c.452 0 .452-3.25.904-3.25s.452-3.287.904-3.287c.451 0 .451-3.313.903-3.313s.452-3.307.904-3.307c.451 0 .451-3.278.903-3.278s.452-3.239.904-3.239c.451 0 .451-3.216.903-3.216s.452-3.216.904-3.216c.451 0 .451-3.25.903-3.25s.452-3.295.904-3.295.452-3.329.903-3.329c.452 0 .452-3.32.904-3.32s.452-3.279.903-3.279c.452 0 .452-3.228.904-3.228s.452-3.193.903-3.193c.452 0 .452-3.197.904-3.197s.452-3.25.903-3.25c.452 0 .452-3.324.904-3.324s.452-3.363.904-3.363c.451 0 .451-3.348.903-3.348s.452-3.272.904-3.272c.451 0 .451-3.18.903-3.18s.452-3.12.904-3.12c.451 0 .451-3.157.903-3.157s.452-3.289.904-3.289c.451 0 .451-3.453.903-3.453s.452-3.509.904-3.509.452-3.323.903-3.323c.452 0 .452-2.783.904-2.783s.452-1.865.903-1.865c.452 0 .452-.659.904-.659s.452.651.903.651c.452 0 .452 1.86.904 1.86s.452 2.778.903 2.778c.452 0 .452 3.321.904 3.321s.452 3.509.904 3.509c.451 0 .451 3.453.903 3.453s.452 3.29.904 3.29c.451 0 .451 3.158.903 3.158s.452 3.12.904 3.12c.451 0 .451 3.18.903 3.18s.452 3.271.904 3.271c.451 0 .451 3.347.903 3.347s.452 3.364.904 3.364.452 3.324.903 3.324c.452 0 .452 3.25.904 3.25s.452 3.198.903 3.198c.452 0 .452 3.192.904 3.192s.452 3.228.903 3.228c.452 0 .452 3.279.904 3.279s.452 3.32.903 3.32c.452 0 .452 3.329.904 3.329s.452 3.295.904 3.295c.451 0 .451 3.25.903 3.25s.452 3.216.904 3.216c.451 0 .451 3.217.903 3.217s.452 3.238.904 3.238c.451 0 .451 3.278.903 3.278s.452 3.307.904 3.307c.451 0 .451 3.313.903 3.313s.452 3.286.904 3.286.452 3.251.903 3.251c.452 0 .452 3.23.904 3.23s.452 3.227.903 3.227c.452 0 .452 3.245.904 3.245s.452 3.277.903 3.277c.452 0 .452 3.304.904 3.304s.452 3.3.903 3.3c.452 0 .452 3.282.904 3.282s.452 3.252.904 3.252c.451 0 .451 3.235.903 3.235s.452 3.23.904 3.23c.451 0 .451 3.249.903 3.249s.452 3.275.904 3.275c.451 0 .451 3.3.903 3.3s.452 3.296.904 3.296c.451 0 .451 3.279.903 3.279s.452 3.256.904 3.256.452 3.238.903 3.238c.452 0 .452 3.234.904 3.234s.452 3.25.903 3.25c.452 0 .452 3.28.904 3.28s.452 3.293.903 3.293c.452 0 .452 3.294.904 3.294s.452 3.277.903 3.277c.452 0 .452 3.257.904 3.257s.452 3.235.904 3.235c.451 0 .451 3.236.903 3.236s.452 3.252.904 3.252c.451 0 .451 3.279.903 3.279s.452 3.292.904 3.292c.451 0 .451 3.293.903 3.293s.452 3.28.904 3.28c.451 0 .451 3.256.903 3.256s.452 3.236.904 3.236.452 3.236.903 3.236c.452 0 .452 3.257.904 3.257s.452 3.276.903 3.276c.452 0 .452 3.292.904 3.292s.452 3.293.903 3.293c.452 0 .452 3.28.904 3.28s.452 3.251.903 3.251c.452 0 .452 3.236.904 3.236s.452 3.235.904 3.235c.451 0 .451 3.257.903 3.257s.452 3.277.904 3.277c.451 0 .451 3.294.903 3.294s.452 3.293.904 3.293c.451 0 .451 3.28.903 3.28s.452 3.25.904 3.25c.451 0 .451 3.234.903 3.234s.452 3.238.904 3.238.452 3.256.903 3.256c.452 0 .452 3.279.904 3.279s.452 3.296.903 3.296c.452 0 .452 3.3.904 3.3s.452 3.276.903 3.276c.452 0 .452 3.248.904 3.248s.452 3.23.903 3.23c.452 0 .452 3.235.904 3.235s.452 3.252.904 3.252c.451 0 .451 3.281.903 3.281s.452 3.301.904 3.301c.451 0 .451 3.304.903 3.304s.452 3.277.904 3.277c.451 0 .451 3.245.903 3.245s.452 3.228.904 3.228c.451 0 .451 3.229.903 3.229s.452 3.25.904 3.25.452 3.287.903 3.287c.452 0 .452 3.313.904 3.313s.452 3.307.903 3.307c.452 0 .452 3.278.904 3.278s.452 3.239.903 3.239c.452 0 .452 3.216.904 3.216s.452 3.216.903 3.216c.452 0 .452 3.25.904 3.25s.452 3.295.904 3.295c.451 0 .451 3.329.903 3.329s.452 3.32.904 3.32c.451 0 .451 3.279.903 3.279s.452 3.228.904 3.228c.451 0 .451 3.193.903 3.193s.452 3.197.904 3.197c.451 0 .451 3.25.903 3.25s.452 3.324.904 3.324.452 3.363.903 3.363c.452 0 .452 3.348.904 3.348s.452 3.272.903 3.272c.452 0 .452 3.18.904 3.18s.452 3.12.903 3.12c.452 0 .452 3.157.904 3.157s.452 3.289.903 3.289c.452 0 .452 3.453.904 3.453s.452 3.509.904 3.509c.451 0 .451 3.323.903 3.323s.452 2.783.904 2.783c.451 0 .451 1.865.903 1.865s.452.659.904.659c.451 0 .451-.651.903-.651s.452-1.86.904-1.86c.451 0 .451-2.778.903-2.778s.452-3.321.904-3.321.452-3.509.903-3.509c.452 0 .452-3.453.904-3.453s.452-3.29.903-3.29c.452 0 .452-3.158.904-3.158s.452-3.12.903-3.12c.452 0 .452-3.18.904-3.18s.452-3.271.903-3.271c.452 0 .452-3.347.904-3.347s.452-3.364.904-3.364c.451 0 .451-3.324.903-3.324s.452-3.25.904-3.25c.451 0 .451-3.198.903-3.198s.452-3.192.904-3.192c.451 0 .451-3.228.903-3.228s.452-3.279.904-3.279c.451 0 .451-3.32.903-3.32s.452-3.329.904-3.329.452-3.295.903-3.295c.452 0 .452-3.25.904-3.25s.452-3.216.903-3.216c.452 0 .452-3.217.904-3.217s.452-3.238.903-3.238c.452 0 .452-3.278.904-3.278s.452-3.307.903-3.307c.452 0 .452-3.313.904-3.313s.452-3.286.904-3.286c.451 0 .451-3.251.903-3.251s.452-3.23.904-3.23c.451 0 .451-3.227.903-3.227s.452-3.245.904-3.245c.451 0 .451-3.277.903-3.277s.452-3.304.904-3.304c.451 0 .451-3.3.903-3.3s.452-3.282.904-3.282.452-3.252.903-3.252c.452 0 .452-3.235.904-3.235s.452-3.23.903-3.23c.452 0 .452-3.249.904-3.249s.452-3.275.903-3.275c.452 0 .452-3.3.904-3.3s.452-3.296.903-3.296c.452 0 .452-3.279.904-3.279s.452-3.256.904-3.256c.451 0 .451-3.238.903-3.238s.452-3.234.904-3.234c.451 0 .451-3.25.903-3.25s.452-3.28.904-3.28c.451 0 .451-3.293.903-3.293s.452-3.294.904-3.294c.451 0 .451-3.277.903-3.277s.452-3.257.904-3.257.452-3.235.903-3.235c.452 0 .452-3.236.904-3.236s.452-3.252.903-3.252c.452 0 .452-3.279.904-3.279s.452-3.292.903-3.292c.452 0 .452-3.293.904-3.293s.452-1.655.903-1.655c.452 0 .452-1.652.904-1.652V256h102.4"
/>
<path
fill="currentColor"
fill-rule="evenodd"
d="M460.115 211.57a27.832 27.832 0 0 1-19.222-7.7 42.602 42.602 0 0 0 0-40.67c2.59-2.45 5.642-4.48 9.03-5.81-7.357 10.57-3.367 25.62 8.19 31.08 11.263 5.39 24.983-.63 28.868-12.46 4.9 17.64-8.547 35.56-26.866 35.56m14.007-42.07c0 7-14.007 7-14.007 0 0-7.07 14.007-7.07 14.007 0m-50.806 34.37c-12.67 12.04-33.621 9.38-42.917-5.46-9.226-14.63-2.576-34.65 13.503-41.02-7.154 10.29-3.598 24.85 7.399 30.73 11.291 5.95 25.683.07 29.666-12.11a27.986 27.986 0 0 1-7.651 27.86m-12.215-41.44c7 0 7 14.07 0 14.07s-7-14.07 0-14.07m49.014-21.07c-10.773 0-20.573 4.13-28.007 10.85-26.6-23.94-70.021-4.34-70.021 31.29s43.421 55.3 70.021 31.36c22.288 20.02 58.807 10.08 67.991-18.34 8.631-26.81-11.942-55.16-39.984-55.16"
/>
</svg>
