<svg
id="warm"
xmlns="http://www.w3.org/2000/svg"
viewBox="0 0 512 512"
width="512px"
height="512px"
>
<path
fill="none"
stroke="currentColor"
stroke-linecap="round"
stroke-linejoin="round"
stroke-width="30"
d="M38.4 256h102.4c.452-47.66.452-66.643.904-66.643.451 0 .451-15.693.903-15.693s.452-32.005.904-32.005c.451 0 .451-24.034.903-24.034s.452-17.063.904-17.063c.451 0 .451-12.005.903-12.005s.452-8.663.904-8.663c.451 0 .451-6.49.903-6.49s.452-5.01.904-5.01.452-3.988.903-3.988c.452 0 .452-3.199.904-3.199s.452-2.491.903-2.491c.452 0 .452-1.859.904-1.859s.452-1.396.903-1.396c.452 0 .452-1.107.904-1.107s.452-.915.903-.915c.452 0 .452-.758.904-.758s.452-.62.904-.62c.451 0 .451-.475.903-.475s.452-.288.904-.288c.451 0 .451-.098.903-.098s.452.026.904.026c.451 0 .451.07.903.07s.452.09.904.09c.451 0 .451.12.903.12s.452.16.904.16.452.222.903.222c.452 0 .452.313.904.313s.452.41.903.41c.452 0 .452.454.904.454s.452.449.903.449c.452 0 .452.435.904.435s.452.44.903.44c.452 0 .452.464.904.464s.452.501.904.501c.451 0 .451.564.903.564s.452.621.904.621c.451 0 .451.638.903.638s.452.615.904.615c.451 0 .451.594.903.594s.452.595.904.595c.451 0 .451.615.903.615s.452.646.904.646.452.693.903.693c.452 0 .452.731.904.731s.452.733.903.733c.452 0 .452.704.904.704s.452.682.903.682c.452 0 .452.685.904.685s.452.705.903.705c.452 0 .452.735.904.735s.452.771.904.771c.451 0 .451.798.903.798s.452.79.904.79c.451 0 .451.758.903.758s.452.737.904.737c.451 0 .451.744.903.744s.452.769.904.769c.451 0 .451.796.903.796s.452.826.904.826.452.844.903.844c.452 0 .452.83.904.83s.452.796.903.796c.452 0 .452.778.904.778s.452.791.903.791c.452 0 .452.82.904.82s.452.846.903.846c.452 0 .452.87.904.87s.452.88.904.88c.451 0 .451.863.903.863s.452.826.904.826c.451 0 .451.814.903.814s.452.835.904.835c.451 0 .451.867.903.867s.452.893.904.893c.451 0 .451.913.903.913s.452.916.904.916.452.895.903.895c.452 0 .452.859.904.859s.452.853.903.853c.452 0 .452.883.904.883s.452.92.903.92c.452 0 .452.947.904.947s.452.962.903.962c.452 0 .452.961.904.961s.452.934.904.934c.451 0 .451.902.903.902s.452.904.904.904c.451 0 .451.947.903.947s.452.991.904.991c.451 0 .451 1.02.903 1.02s.452 1.032.904 1.032c.451 0 .451 1.027.903 1.027s.452.999.904.999.452.971.903.971c.452 0 .452.99.904.99s.452 1.051.903 1.051c.452 0 .452 1.11.904 1.11s.452 1.142.903 1.142c.452 0 .452 1.155.904 1.155s.452 1.15.903 1.15c.452 0 .452 1.125.904 1.125s.452 1.114.904 1.114c.451 0 .451 1.163.903 1.163s.452 1.263.904 1.263c.451 0 .451 1.354.903 1.354s.452 1.403.904 1.403c.451 0 .451 1.43.903 1.43s.452 1.446.904 1.446c.451 0 .451 1.455.903 1.455s.452 1.503.904 1.503.452 1.641.903 1.641c.452 0 .452 1.857.904 1.857s.452 2.06.903 2.06c.452 0 .452 2.212.904 2.212s.452 2.356.903 2.356c.452 0 .452 2.55.904 2.55s.452 2.822.903 2.822c.452 0 .452 3.264.904 3.264s.452 3.994.904 3.994c.451 0 .451 5.03.903 5.03s.452 6.277.904 6.277c.451 0 .451 7.877.903 7.877s.452 10.282.904 10.282c.451 0 .451 13.882.903 13.882s.452 18.342.904 18.342c.451 0 .451 22.45.903 22.45s.452 24.906.904 24.906.452 24.915.903 24.915c.452 0 .452 22.47.904 22.47s.452 18.332.903 18.332c.452 0 .452 13.906.904 13.906s.452 10.3.903 10.3c.452 0 .452 7.888.904 7.888s.452 6.283.903 6.283c.452 0 .452 5.038.904 5.038s.452 4 .904 4c.451 0 .451 3.267.903 3.267s.452 2.823.904 2.823c.451 0 .451 2.552.903 2.552s.452 2.357.904 2.357c.451 0 .451 2.212.903 2.212s.452 2.061.904 2.061c.451 0 .451 1.859.903 1.859s.452 1.642.904 1.642.452 1.503.903 1.503c.452 0 .452 1.455.904 1.455s.452 1.446.903 1.446c.452 0 .452 1.43.904 1.43s.452 1.404.903 1.404c.452 0 .452 1.355.904 1.355s.452 1.263.903 1.263c.452 0 .452 1.163.904 1.163s.452 1.114.904 1.114c.451 0 .451 1.126.903 1.126s.452 1.149.904 1.149c.451 0 .451 1.155.903 1.155s.452 1.142.904 1.142c.451 0 .451 1.11.903 1.11s.452 1.052.904 1.052c.451 0 .451.99.903.99s.452.972.904.972.452.998.903.998c.452 0 .452 1.027.904 1.027s.452 1.032.903 1.032c.452 0 .452 1.02.904 1.02s.452.992.903.992c.452 0 .452.947.904.947s.452.904.903.904c.452 0 .452.902.904.902s.452.933.904.933c.451 0 .451.962.903.962s.452.962.904.962c.451 0 .451.946.903.946s.452.921.904.921c.451 0 .451.883.903.883s.452.853.904.853c.451 0 .451.86.903.86s.452.893.904.893.452.917.903.917c.452 0 .452.913.904.913s.452.893.903.893c.452 0 .452.867.904.867s.452.835.903.835c.452 0 .452.814.904.814s.452.827.903.827c.452 0 .452.861.904.861s.452.88.904.88c.451 0 .451.871.903.871s.452.847.904.847c.451 0 .451.82.903.82s.452.791.904.791c.451 0 .451.778.903.778s.452.796.904.796c.451 0 .451.83.903.83s.452.843.904.843.452.826.903.826c.452 0 .452.797.904.797s.452.768.903.768c.452 0 .452.745.904.745s.452.737.903.737c.452 0 .452.758.904.758s.452.79.903.79c.452 0 .452.797.904.797s.452.771.904.771c.451 0 .451.736.903.736s.452.705.904.705c.451 0 .451.685.903.685s.452.682.904.682c.451 0 .451.704.903.704s.452.732.904.732c.451 0 .451.732.903.732s.452.693.904.693.452.647.903.647c.452 0 .452.614.904.614s.452.596.903.596c.452 0 .452.594.904.594s.452.614.903.614c.452 0 .452.638.904.638s.452.622.903.622c.452 0 .452.564.904.564s.452.502.904.502c.451 0 .451.462.903.462s.452.442.904.442c.451 0 .451.435.903.435s.452.448.904.448c.451 0 .451.455.903.455s.452.41.904.41c.451 0 .451.314.903.314s.452.221.904.221.452.16.903.16c.452 0 .452.121.904.121s.452.09.903.09c.452 0 .452.07.904.07s.452.027.903.027c.452 0 .452-.097.904-.097s.452-.287.903-.287c.452 0 .452-.473.904-.473s.452-.62.904-.62c.451 0 .451-.757.903-.757s.452-.915.904-.915c.451 0 .451-1.105.903-1.105s.452-1.394.904-1.394c.451 0 .451-1.855.903-1.855s.452-2.488.904-2.488c.451 0 .451-3.195.903-3.195s.452-3.983.904-3.983.452-5.003.903-5.003c.452 0 .452-6.48.904-6.48s.452-8.647.903-8.647c.452 0 .452-11.98.904-11.98s.452-17.029.903-17.029c.452 0 .452-23.989.904-23.989s.452-11.399.903-11.399c.452 0 .452-14.035.904-14.035V256h102.4"
/>
<path
fill="currentColor"
fill-rule="evenodd"
d="M460.115 211.57a27.832 27.832 0 0 1-19.222-7.7 42.602 42.602 0 0 0 0-40.67c2.59-2.45 5.642-4.48 9.03-5.81-7.357 10.57-3.367 25.62 8.19 31.08 11.263 5.39 24.983-.63 28.868-12.46 4.9 17.64-8.547 35.56-26.866 35.56m14.007-42.07c0 7-14.007 7-14.007 0 0-7.07 14.007-7.07 14.007 0m-50.806 34.37c-12.67 12.04-33.621 9.38-42.917-5.46-9.226-14.63-2.576-34.65 13.503-41.02-7.154 10.29-3.598 24.85 7.399 30.73 11.291 5.95 25.683.07 29.666-12.11a27.986 27.986 0 0 1-7.651 27.86m-12.215-41.44c7 0 7 14.07 0 14.07s-7-14.07 0-14.07m49.014-21.07c-10.773 0-20.573 4.13-28.007 10.85-26.6-23.94-70.021-4.34-70.021 31.29s43.421 55.3 70.021 31.36c22.288 20.02 58.807 10.08 67.991-18.34 8.631-26.81-11.942-55.16-39.984-55.16"
/>
</svg>
