<svg
  id="white-noise"
  xmlns="http://www.w3.org/2000/svg"
  viewBox="0 0 512 512"
  width="512px"
  height="512px"
>
  <path
    fill="none"
    stroke="currentColor"
    stroke-linecap="round"
    stroke-linejoin="round"
    stroke-width="30"
    d="M38.4 256h102.4c4.608 58.793 4.608 102.677 9.216 102.677s4.608-29.596 9.216-29.596 4.608 27.271 9.216 27.271 4.608 9.09 9.216 9.09 4.608 13.27 9.216 13.27 4.608-64.57 9.216-64.57 4.608-26.591 9.216-26.591 4.608-16.827 9.216-16.827 4.608 8.057 9.216 8.057 4.608-28.708 9.216-28.708 4.608-54.8 9.216-54.8 4.608-12.988 9.216-12.988 4.608-22.73 9.216-22.73 4.608-29.885 9.216-29.885 4.608-78.47 9.216-78.47 4.608 43.537 9.216 43.537 4.608 30.361 9.216 30.361 4.608-3.078 9.216-3.078 4.608 10.697 9.216 10.697 4.608 111.548 9.216 111.548 4.608 60.425 9.216 60.425 4.608-40.353 9.216-40.353S348.16 256 352.768 256H473.6"
  />
  <path
    fill="currentColor"
    fill-rule="evenodd"
    d="M460.115 211.57a27.832 27.832 0 0 1-19.222-7.7 42.602 42.602 0 0 0 0-40.67c2.59-2.45 5.642-4.48 9.03-5.81-7.357 10.57-3.367 25.62 8.19 31.08 11.263 5.39 24.983-.63 28.868-12.46 4.9 17.64-8.547 35.56-26.866 35.56m14.007-42.07c0 7-14.007 7-14.007 0 0-7.07 14.007-7.07 14.007 0m-50.806 34.37c-12.67 12.04-33.621 9.38-42.917-5.46-9.226-14.63-2.576-34.65 13.503-41.02-7.154 10.29-3.598 24.85 7.399 30.73 11.291 5.95 25.683.07 29.666-12.11a27.986 27.986 0 0 1-7.651 27.86m-12.215-41.44c7 0 7 14.07 0 14.07s-7-14.07 0-14.07m49.014-21.07c-10.773 0-20.573 4.13-28.007 10.85-26.6-23.94-70.021-4.34-70.021 31.29s43.421 55.3 70.021 31.36c22.288 20.02 58.807 10.08 67.991-18.34 8.631-26.81-11.942-55.16-39.984-55.16"
  />
</svg>
