<?xml version="1.0" encoding="utf-8"?>
<svg width="800px" height="800px" viewBox="0 0 24 24" version="1.1" xmlns="http://www.w3.org/2000/svg">
  <path d="M 3.921 13.897 C 3.921 16.313 5.796 18.278 8.098 18.278 L 8.098 19.374 C 5.191 19.374 2.826 16.917 2.826 13.897 C 2.826 10.876 5.191 8.419 8.098 8.419 L 12.731 8.419 L 10.928 6.616 L 11.702 5.842 L 14.828 8.967 L 11.703 12.093 L 10.928 11.318 L 12.732 9.515 L 8.098 9.515 C 5.796 9.515 3.921 11.48 3.921 13.897 Z M 16.176 8.419 L 16.176 9.515 C 18.478 9.515 20.353 11.48 20.353 13.897 C 20.353 16.313 18.478 18.278 16.176 18.278 L 11.542 18.278 L 13.345 16.475 L 12.571 15.701 L 9.445 18.826 L 12.572 21.952 L 13.346 21.178 L 11.542 19.374 L 16.175 19.374 C 19.083 19.374 21.448 16.917 21.448 13.897 C 21.448 10.876 19.083 8.419 16.176 8.419 Z" fill="#000000" style=""/>
  <path d="M 1.174 3.987 L 22.898 3.987 L 22.898 23.304 L 1.174 23.304 L 1.174 3.987 Z M 8.035 3.686 L 9.529 0.622 L 14.811 0.638 L 16.256 3.741" style="stroke: currentColor; fill: none; stroke-linejoin: round; stroke-linecap: round;"/>
  <path style="fill: none; stroke-linecap: round; stroke-linejoin: round;" d="M 8.704 3.914 L 10.177 0.591 L 14.384 0.839 L 16.08 3.985"/>
</svg>