<svg id="save" xmlns="http://www.w3.org/2000/svg" xml:space="preserve" viewBox="0 0 290 290">
  <path d="m287.602 53.599-51.2-51.2a8.212 8.212 0 0 0-5.8-2.399H8.199A8.195 8.195 0 0 0 0 8.199v273.602A8.195 8.195 0 0 0 8.199 290h273.602a8.195 8.195 0 0 0 8.199-8.199V59.397a8.216 8.216 0 0 0-2.398-5.798zM38.456 34.678a5.921 5.921 0 0 1 5.917-5.916h160.975a5.92 5.92 0 0 1 5.918 5.916v78.323a5.913 5.913 0 0 1-5.918 5.915H44.373a5.916 5.916 0 0 1-5.917-5.915V34.678zm213.088 212.835a7.3 7.3 0 0 1-7.296 7.298H45.752a7.3 7.3 0 0 1-7.296-7.298V150.94a7.298 7.298 0 0 1 7.296-7.295h198.496a7.298 7.298 0 0 1 7.296 7.295v96.573z"/>
  <path d="M173.564 39.039h24.588v69.604h-24.588zM59.489 174.643H230.51v8.195H59.489zM59.489 215.62H230.51v8.195H59.489z"/>
</svg>
