<svg xmlns="http://www.w3.org/2000/svg" width="1024" height="1024">
  <style>
    path{fill:currentColor}@media (prefers-color-scheme:dark){path{fill:#fff}}
  </style>
  <g id="object-0" style="transform-origin:514.8px 659.434px" transform="matrix(2.18556 0 0 2.18556 .95 -145.49)">
    <g style="transform-origin:1px 2px">
      <path id="SVGRepo_iconCarrier" fill-rule="evenodd" d="M9 2a1 1 0 0 1 .949.684L15 17.838l2.051-6.154A1 1 0 0 1 18 11h4a1 1 0 1 1 0 2h-3.28l-2.771 8.316a1 1 0 0 1-1.898 0L9 6.162l-2.051 6.154A1 1 0 0 1 6 13H2a1 1 0 1 1 0-2h3.28L8.05 2.684A1 1 0 0 1 9 2Z" clip-rule="evenodd" transform="matrix(20 0 0 20 285.025 457.434)"/>
    </g>
    <g id="group-3" transform="matrix(7.5 0 0 7.5 592.365 535.046)">
      <g id="Page-1" fill="none" fill-rule="evenodd" stroke="none" stroke-width="1">
        <g id="Dribbble-Light-Preview" fill="currentColor" transform="translate(-380 -7803)">
          <g id="icons" transform="translate(56 160)">
            <path id="eyes-[#90]" d="M338.165 7653.11a3.976 3.976 0 0 1-2.746-1.1 6.086 6.086 0 0 0 0-5.81c.37-.35.806-.64 1.29-.83-1.051 1.51-.481 3.66 1.17 4.44 1.609.77 3.569-.09 4.124-1.78.7 2.52-1.221 5.08-3.838 5.08m2.001-6.01c0 1-2.001 1-2.001 0 0-1.01 2.001-1.01 2.001 0m-7.258 4.91c-1.81 1.72-4.803 1.34-6.131-.78-1.318-2.09-.368-4.95 1.929-5.86-1.022 1.47-.514 3.55 1.057 4.39 1.613.85 3.669.01 4.238-1.73a3.998 3.998 0 0 1-1.093 3.98m-1.745-5.92c1 0 1 2.01 0 2.01s-1-2.01 0-2.01m7.002-3.01c-1.539 0-2.939.59-4.001 1.55-3.8-3.42-10.003-.62-10.003 4.47s6.203 7.9 10.003 4.48c3.184 2.86 8.401 1.44 9.713-2.62 1.233-3.83-1.706-7.88-5.712-7.88"/>
          </g>
        </g>
      </g>
    </g>
  </g>
</svg>