<svg xmlns="http://www.w3.org/2000/svg" version="1.0" viewBox="45 34.7 360 277.6">
  <path d="M172.1 40.7c-2.8 2.7-3 3.6-6.5 26.8-2 13.2-6.5 43.1-10.1 66.4-3.6 23.3-6.5 43.9-6.5 45.7 0 6.8-1.7 3.2-2.3-4.9-.3-4.5-1.5-15.9-2.7-25.2-1.1-9.4-2.7-22.6-3.5-29.5-2.5-21-2.5-21.1-5-23.6-3.2-3.2-8.8-3.2-11.8-.2-1.7 1.7-4.2 9.6-10.1 31.8-9 33.8-8.8 33.4-9.3 30-1.9-14.1-3.6-20.9-5.7-22.9-2.8-2.7-8.9-3.1-11.4-.8-1 .9-5.1 7.5-9.2 14.6l-7.5 13-14.3.1H41.8l-2.9 2.9c-3.1 3.1-3.5 5.3-1.9 9.6 1.8 4.7 6.3 5.7 25 5.3 18.7-.3 18.5-.3 22.8-7.9 1.5-2.7 2.9-4.9 3.2-4.9.3 0 1.8 8 3.4 17.8 1.6 9.7 3.5 18.9 4.2 20.4 2 3.8 7.3 5.4 11.4 3.3 1.7-.9 3.5-2.6 4-3.9 1.8-4.7 14-51.3 14-53.4 0-1.2.5-2.2 1-2.2.6 0 1 1.7 1 3.8 0 2.1.7 8.9 1.4 15.2 1.6 12.1 4.1 33.6 7.6 63 1.1 9.6 2.2 18.5 2.5 19.7 1.5 6.5 10.4 8.6 14.7 3.5 2-2.4 2.8-5.7 5.1-21.3 1.5-10.1 5.9-38.9 9.7-63.9 3.9-25 7.3-48.3 7.6-51.7.8-7 1.9-7.6 2.2-1.1.2 2.4 5.2 43.6 11.2 91.5 6.1 48 11 88 11 88.8 0 .9 1.1 2.7 2.5 4 4.7 4.8 13.5 2.6 15-3.7.2-1.3 2.7-15.4 5.4-31.3 2.8-16 7.7-44.5 11-63.5s6.1-35.6 6.3-37c.6-3.6.8-3.1 8.7 32.5 4 17.6 7.7 33.5 8.2 35.2 1.3 4 4.3 6.3 8.4 6.3 4.3 0 7.3-2.4 8.4-6.8 1.6-6 20.1-106.1 20.1-108.7 0-1.3.5-2.7 1-3 .6-.4 1 .5 1 2.1 0 1.4 3.6 25 8 52.3 4.5 27.3 9.9 60.8 12.1 74.6 2.2 13.7 4.4 26 4.9 27.2 2.4 5.8 11.3 6.8 14.6 1.7 1.8-2.6 2-4.1 10.9-67.4 3-21.7 5.7-40 5.9-40.5.2-.6.8.8 1.5 3.1 2.1 7.8 2.4 7.9 27.8 7.9h22.5l2.4-2.8c3.3-3.9 3.1-8.1-.5-11.8l-2.9-2.9h-34l-6.2-18.8c-6.6-20-8.5-23.2-14-23.2-1.6 0-4.1 1-5.6 2.3-2.4 2.1-2.8 3.6-5 18.3-5.2 35.6-9.4 66.3-9.4 69-.1 4.6-1.6.8-2.4-5.7-.3-3.1-5.5-36.2-11.6-73.5-10.5-65.4-11-68-13.5-70.2-3.6-3-8.9-3-11.8.2-2.4 2.5-1.7-.8-16.8 81.1-3.8 20.9-7.3 39.3-7.7 40.8-.5 2.2-2.6-5.4-8.6-32-4.3-19.1-8.5-36.2-9.2-38-.7-1.7-2.1-3.6-3.2-4.2-4.2-2.2-10.2-.9-12.1 2.7-.9 1.7-19 104.5-20.7 117.2-.4 3-.9 5-1.1 4.5-.2-.9-16.7-131.2-21.3-169-2.7-21.8-2.8-22.4-5.5-25.1-3.3-3.3-7.7-3.1-11.4.3zm9.9 2.9c.8.9 4 22.5 8.2 55.7 8 63.8 6.8 53.6 12.3 97.9 2.5 19.6 4.8 36.3 5.1 37.2.8 2.1 3.1 2.7 4.4 1.1 1.4-1.7 2.5-7.1 7.9-38.5 2.2-12.9 6.3-36.5 9.1-52.4 5.2-30.2 6-32.6 10.5-32.1 5.3.5 5.3.5 11 26.5 6.3 28.5 11.3 48.2 12.4 49.3.8.8 1.7.6 3.1-.9 1.9-1.8 4.3-12.6 10-44.9.5-2.8 1.8-10 3-16 1.2-6.1 2.5-13.3 3-16 .5-2.8 2-11.1 3.4-18.5s3-16.2 3.6-19.5c1.2-6.3 3.6-9.5 7.2-9.5 4.6 0 4.8.8 9.8 32 1.7 10.7 4.4 27.6 6 37.5 1.6 9.9 4.8 29 6.9 42.5 2.2 13.5 4.2 25.4 4.4 26.5.3 1.1.7 4.1 1.1 6.6.4 2.6 1.5 5.4 2.5 6.3 1.6 1.5 1.9 1.5 3.1.1 1-1.2 7.3-41 10.3-65.5 2.6-20.9 3.9-24.1 9.6-23.2 3.6.5 4.2 1.6 11.1 22.6 2.9 8.7 6.1 16.7 7.1 17.7 1.7 1.7 3.6 1.9 18.3 1.9 13.6 0 16.7.3 18 1.6 2 1.9 2 4.4.2 7-1.3 1.7-3 1.9-19.2 2.2-9.8.2-19.8.1-22.2-.3-4-.6-4.6-1-6.3-4.9-1-2.4-2.5-4.9-3.3-5.5-3-2.5-4.4 2.8-8.6 32.4-2.2 15.9-4.3 30.3-4.5 32-.3 1.6-1.6 11.5-3.1 22-1.4 10.4-3.3 20-4 21.2-1.8 2.9-7.9 3.2-9.2.5-.9-1.7-2.6-10.5-6.2-33.2-1.1-6.9-4.2-26.2-6.9-43-4.7-29-7.5-46.3-8.7-54-2.4-15.7-4.5-25.2-5.7-26.5-3.7-3.6-5.5 3.4-15.7 60-10.3 57-10.2 56.5-15.6 56.5-3.7 0-5.1-2.5-7.8-14.2-1.5-6.2-3.5-14.9-4.6-19.3-1-4.4-3.5-15.1-5.5-23.7-3.6-15.4-5-18.6-7.9-17.5-1.7.7-2.3 3.5-7.1 31.2-6.7 39.2-8.4 49-11.5 66.5-1.7 9.6-3.8 21.8-4.6 27-1.8 11.2-3.3 14-7.4 14-2.7 0-6-2.2-6-3.9 0-.5-1.4-11.6-3-24.7-1.7-13.1-3.3-25.7-3.5-27.9-1.6-12.7-10.9-86.6-13.5-106.9-2.7-21.6-3.9-26.6-5.9-26.6-3 .1-3.5 2.1-7 25.5-1.1 7.1-2.9 19.1-4 26.5-1.1 7.4-2.3 15.7-2.7 18.5-.3 2.7-.8 5.9-1 7-.2 1.1-.9 4.7-1.4 8-.5 3.3-1.6 10.3-2.4 15.5-.8 5.2-2.5 16.2-3.7 24.5-1.3 9.4-2.7 15.7-3.7 16.7-1.9 2.3-5.4 2.3-8 .1-2-1.8-2.7-6-8.8-59.8-4.6-40.2-6-47.1-9.4-45-1.7 1-2.4 3.3-9.6 30.3-3.6 13.6-7.3 25.5-8.2 26.4-2.2 2.6-6.8 2.3-8.6-.5-.7-1.2-2.8-10-4.5-19.6-1.7-9.5-3.6-17.9-4.2-18.7-.9-1.1-1.5-1.1-3.5.3-1.4.9-3.1 2.8-3.9 4.4-3.1 5.9-3.1 5.9-22.5 5.9-14.9 0-18.1-.3-19.4-1.6-2-1.9-2-4.4-.2-7 1.3-1.7 3-1.9 15.8-2.2 7.8-.2 14.8-.8 15.4-1.3.6-.5 4.6-6.8 9-13.9 8.2-13.7 10.1-15.4 14.9-13.2 2.4 1.1 3.3 4.1 5.4 17.1.4 2.9 1.5 6 2.4 6.8 1.4 1.4 1.7 1.4 3.1 0 .9-.8 4.3-11.6 7.7-23.9 3.3-12.3 6.9-25.4 7.9-29.2 2.8-10.1 6.1-12.8 10.9-8.8 2 1.6 2.6 5 7.1 41.8 4.4 36.8 5.8 44.4 8.2 44.4 2.3 0 4-8.3 10.7-53.6 1.2-7.6 2.8-18.4 3.6-23.9.9-5.5 3.4-21.9 5.5-36.4 2.2-14.5 4.5-27 5.1-27.8 1.6-1.8 7.4-1.7 8.9.3z"/>
</svg>
