<svg xmlns="http://www.w3.org/2000/svg" version="1.0" viewBox="45 34.7 360 277.6">
  <path d="m172.1 40.7-3 2.8-10.3 68.3c-5.7 37.5-10.6 67.4-11 66.5-.4-1-2.5-17.6-4.8-36.8-2.2-19.3-4.3-36.8-4.6-38.9-.8-5.3-4.3-8.6-8.9-8.6-6.5 0-7.3 1.6-16 34.2-4.4 16.4-8.2 29.8-8.5 29.8-.3 0-1.3-4.6-2.3-10.2-2.1-12.3-3.8-14.8-10.3-14.8-5.1 0-5.3.2-15.2 17.1l-6.7 11.4-14.9.5c-14.7.5-14.8.5-17.2 3.3-4.1 4.8-2.6 10.9 3.3 13.3 4.8 2.1 36.1 1.7 38.6-.5.9-.7 3-3.6 4.6-6.3 3.4-6 3-6.9 6.6 14.2 3.2 19 3.9 20.9 8.2 22.6 2.8 1.2 3.8 1.2 6.8 0 2-.9 3.9-2.6 4.4-3.9.6-1.4 4-13.8 7.7-27.6s7-25.1 7.4-25.1c.3 0 3.2 22.2 6.4 49.2 3.2 27.1 6.3 50.2 6.9 51.3 2.7 5.2 9.8 6.2 13.7 2 2.5-2.6 4.9-17.1 20.7-122.5 2.1-14.4 2.9-17.8 3.5-15.5.8 2.9 22.8 176.9 22.8 180 0 3 4.7 6.5 8.5 6.5 4.7 0 7-1.3 8.3-4.7.6-1.5 6.1-32.4 12.4-68.5 6.2-36.1 11.6-65.2 11.9-64.5.4.7 4.1 16.2 8.3 34.6 4.2 18.4 8.1 34.2 8.7 35.2 2.1 4 8.6 5.2 12.6 2.4 1.3-.9 2.7-3.2 3.3-5.3.6-2 5.3-26.9 10.5-55.2 5.3-28.3 9.9-52.3 10.3-53.3.4-1.1 4.5 22 10.1 56.5 16.6 103.1 15.4 96.8 18.6 99.6 4.9 4.2 12.6 1.3 14-5.2.4-2.1 14.5-101.5 14.5-103.2.1-.5 1.1 1.1 2.3 3.6 3.4 6.9 4.2 7.1 28.5 6.8l21.4-.3 2.4-2.8c3.3-3.9 3.1-8.1-.5-11.8l-2.9-2.9h-34l-6.2-18.8c-6.7-20.1-8.5-23.2-14.1-23.2-2 0-4 1-5.8 2.7-2.6 2.7-2.9 4.1-8.6 45.1-3.7 26.6-6.2 41.5-6.7 40-.4-1.3-3.9-22.3-7.8-46.8-16.3-101.5-15.7-98.3-18.6-100.8-3.5-3.1-8.8-3-11.8.3-1.7 1.8-2.7 5-4 12.2-3.9 22.1-20.6 110.7-20.9 111-.2.1-3.6-14-7.6-31.5-9.1-40-9.6-41.8-12.3-43.7-4.1-2.8-10.6-1.6-12.7 2.4-.6 1-5.6 28.1-11.1 60.2s-10.2 58.8-10.4 59.4c-.5 1.6-1-2.2-12.6-95-6-48.4-11.2-89.5-11.6-91.4-1.3-7.7-8.8-10.5-14.3-5.4z"/>
</svg>
