<svg
id="formant"
xmlns="http://www.w3.org/2000/svg"
viewBox="0 0 512 512"
width="512px"
height="512px"
>
<path
fill="none"
stroke="currentColor"
stroke-linecap="round"
stroke-linejoin="round"
stroke-width="30"
d="M38.4 256h102.4c.452 1.843.452 2.459.904 2.459.451 0 .451.774.903.774s.452 1.628.904 1.628c.451 0 .451 1.28.903 1.28s.452 1.14.904 1.14c.451 0 .451 1.187.903 1.187s.452.958.904.958c.451 0 .451.495.903.495s.452.265.904.265.452.233.903.233c.452 0 .452-.064.904-.064s.452-.563.903-.563c.452 0 .452-.793.904-.793s.452-.812.903-.812c.452 0 .452-1.082.904-1.082s.452-1.52.903-1.52c.452 0 .452-1.657.904-1.657s.452-1.572.904-1.572c.451 0 .451-1.729.903-1.729s.452-2.029.904-2.029c.451 0 .451-2.003.903-2.003s.452-1.754.904-1.754c.451 0 .451-1.757.903-1.757s.452-1.886.904-1.886c.451 0 .451-1.68.903-1.68s.452-1.266.904-1.266.452-1.126.903-1.126c.452 0 .452-1.113.904-1.113s.452-.766.903-.766c.452 0 .452-.245.904-.245s.452-.031.903-.031c.452 0 .452.042.904.042s.452.438.903.438c.452 0 .452.966.904.966s.452 1.146.904 1.146c.451 0 .451 1.17.903 1.17s.452 1.5.904 1.5c.451 0 .451 1.92.903 1.92s.452 1.952.904 1.952c.451 0 .451 1.819.903 1.819s.452 1.982.904 1.982c.451 0 .451 2.205.903 2.205s.452 2.011.904 2.011.452 1.651.903 1.651c.452 0 .452 1.598.904 1.598s.452 1.586.903 1.586c.452 0 .452 1.146.904 1.146s.452.558.903.558c.452 0 .452.306.904.306s.452.096.903.096c.452 0 .452-.541.904-.541s.452-1.285.904-1.285c.451 0 .451-1.65.903-1.65s.452-1.954.904-1.954c.451 0 .451-2.68.903-2.68s.452-3.452.904-3.452c.451 0 .451-3.795.903-3.795s.452-4.06.904-4.06c.451 0 .451-4.729.903-4.729s.452-5.39.904-5.39.452-5.568.903-5.568c.452 0 .452-5.665.904-5.665s.452-6.145.903-6.145c.452 0 .452-6.578.904-6.578s.452-6.49.903-6.49c.452 0 .452-6.32.904-6.32s.452-6.544.903-6.544c.452 0 .452-6.705.904-6.705s.452-6.316.904-6.316c.451 0 .451-5.871.903-5.871s.452-5.858.904-5.858c.451 0 .451-5.777.903-5.777s.452-5.138.904-5.138c.451 0 .451-4.494.903-4.494s.452-4.341.904-4.341c.451 0 .451-4.132.903-4.132s.452-3.367.904-3.367.452-2.662.903-2.662c.452 0 .452-2.526.904-2.526s.452-2.342.903-2.342c.452 0 .452-1.61.904-1.61s.452-1.001.903-1.001c.452 0 .452-1.044.904-1.044s.452-1.038.903-1.038c.452 0 .452-.468.904-.468s.452-.086.904-.086c.451 0 .451-.42.903-.42s.452-.68.904-.68c.451 0 .451-.334.903-.334s.452-.22.904-.22c.451 0 .451-.867.903-.867s.452-1.388.904-1.388c.451 0 .451-1.223.903-1.223s.452-1.309.904-1.309.452-2.195.903-2.195c.452 0 .452-2.87.904-2.87s.452-2.733.903-2.733c.452 0 .452-2.858.904-2.858s.452-3.827.903-3.827c.452 0 .452-4.469.904-4.469s.452-4.14.903-4.14c.452 0 .452-4.105.904-4.105s.452-4.972.904-4.972c.451 0 .451-5.387.903-5.387s.452-4.65.904-4.65c.451 0 .451-4.259.903-4.259s.452-4.899.904-4.899c.451 0 .451-4.952.903-4.952s.452-3.641.904-3.641c.451 0 .451-2.792.903-2.792s.452-3.213.904-3.213.452-2.897.903-2.897c.452 0 .452-.941.904-.941s.452.358.903.358c.452 0 .452-.042.904-.042s.452.462.903.462c.452 0 .452 3.078.904 3.078s.452 4.74.903 4.74c.452 0 .452 3.848.904 3.848s.452 4.082.904 4.082c.451 0 .451 7.634.903 7.634s.452 9.825.904 9.825c.451 0 .451 6.926.903 6.926s.452 5.207.904 5.207c.451 0 .451 14.099.903 14.099s.452 32.92.904 32.92c.451 0 .451 50.971.903 50.971s.452 60.584.904 60.584.452 60.611.903 60.611c.452 0 .452 51.056.904 51.056s.452 32.893.903 32.893c.452 0 .452 14.186.904 14.186s.452 5.223.903 5.223c.452 0 .452 6.901.904 6.901s.452 9.822.903 9.822c.452 0 .452 7.658.904 7.658s.452 4.094.904 4.094c.451 0 .451 3.84.903 3.84s.452 4.743.904 4.743c.451 0 .451 3.094.903 3.094s.452.472.904.472c.451 0 .451-.045.903-.045s.452.36.904.36c.451 0 .451-.93.903-.93s.452-2.888.904-2.888.452-3.216.903-3.216c.452 0 .452-2.792.904-2.792s.452-3.633.903-3.633c.452 0 .452-4.947.904-4.947s.452-4.903.903-4.903c.452 0 .452-4.261.904-4.261s.452-4.644.903-4.644c.452 0 .452-5.385.904-5.385s.452-4.978.904-4.978c.451 0 .451-4.108.903-4.108s.452-4.138.904-4.138c.451 0 .451-4.469.903-4.469s.452-3.833.904-3.833c.451 0 .451-2.862.903-2.862s.452-2.731.904-2.731c.451 0 .451-2.871.903-2.871s.452-2.202.904-2.202.452-1.311.903-1.311c.452 0 .452-1.222.904-1.222s.452-1.389.903-1.389c.452 0 .452-.872.904-.872s.452-.221.903-.221c.452 0 .452-.332.904-.332s.452-.68.903-.68c.452 0 .452-.422.904-.422s.452-.086.904-.086c.451 0 .451-.464.903-.464s.452-1.036.904-1.036c.451 0 .451-1.046.903-1.046s.452-1 .904-1c.451 0 .451-1.604.903-1.604s.452-2.34.904-2.34c.451 0 .451-2.526.903-2.526s.452-2.659.904-2.659.452-3.362.903-3.362c.452 0 .452-4.128.904-4.128s.452-4.342.903-4.342c.452 0 .452-4.491.904-4.491s.452-5.134.903-5.134c.452 0 .452-5.775.904-5.775s.452-5.858.903-5.858c.452 0 .452-5.87.904-5.87s.452-6.312.904-6.312c.451 0 .451-6.705.903-6.705s.452-6.552.904-6.552c.451 0 .451-6.321.903-6.321s.452-6.488.904-6.488c.451 0 .451-6.58.903-6.58s.452-6.148.904-6.148c.451 0 .451-5.66.903-5.66s.452-5.568.904-5.568.452-5.393.903-5.393c.452 0 .452-4.733.904-4.733s.452-4.062.903-4.062c.452 0 .452-3.796.904-3.796s.452-3.456.903-3.456c.452 0 .452-2.685.904-2.685s.452-1.958.903-1.958c.452 0 .452-1.65.904-1.65s.452-1.288.904-1.288c.451 0 .451-.547.903-.547s.452.095.904.095c.451 0 .451.305.903.305s.452.555.904.555c.451 0 .451 1.142.903 1.142s.452 1.586.904 1.586c.451 0 .451 1.598.903 1.598s.452 1.65.904 1.65.452 2.009.903 2.009c.452 0 .452 2.204.904 2.204s.452 1.984.903 1.984c.452 0 .452 1.82.904 1.82s.452 1.951.903 1.951c.452 0 .452 1.921.904 1.921s.452 1.503.903 1.503c.452 0 .452 1.17.904 1.17s.452 1.146.904 1.146c.451 0 .451.968.903.968s.452.442.904.442c.451 0 .451.043.903.043s.452-.03.904-.03c.451 0 .451-.243.903-.243s.452-.763.904-.763c.451 0 .451-1.113.903-1.113s.452-1.125.904-1.125.452-1.264.903-1.264c.452 0 .452-1.678.904-1.678s.452-1.887.903-1.887c.452 0 .452-1.757.904-1.757s.452-1.753.903-1.753c.452 0 .452-2.002.904-2.002s.452-2.03.903-2.03c.452 0 .452-1.73.904-1.73s.452-1.572.904-1.572c.451 0 .451-1.657.903-1.657s.452-1.522.904-1.522c.451 0 .451-1.085.903-1.085s.452-.812.904-.812c.451 0 .451-.794.903-.794s.452-.565.904-.565c.451 0 .451-.066.903-.066s.452.232.904.232.452.264.903.264c.452 0 .452.493.904.493s.452.956.903.956c.452 0 .452 1.187.904 1.187s.452 1.139.903 1.139c.452 6.148.452 6.148.904 6.148H473.6"
/>
<path
fill="currentColor"
fill-rule="evenodd"
d="M460.115 211.57a27.832 27.832 0 0 1-19.222-7.7 42.602 42.602 0 0 0 0-40.67c2.59-2.45 5.642-4.48 9.03-5.81-7.357 10.57-3.367 25.62 8.19 31.08 11.263 5.39 24.983-.63 28.868-12.46 4.9 17.64-8.547 35.56-26.866 35.56m14.007-42.07c0 7-14.007 7-14.007 0 0-7.07 14.007-7.07 14.007 0m-50.806 34.37c-12.67 12.04-33.621 9.38-42.917-5.46-9.226-14.63-2.576-34.65 13.503-41.02-7.154 10.29-3.598 24.85 7.399 30.73 11.291 5.95 25.683.07 29.666-12.11a27.986 27.986 0 0 1-7.651 27.86m-12.215-41.44c7 0 7 14.07 0 14.07s-7-14.07 0-14.07m49.014-21.07c-10.773 0-20.573 4.13-28.007 10.85-26.6-23.94-70.021-4.34-70.021 31.29s43.421 55.3 70.021 31.36c22.288 20.02 58.807 10.08 67.991-18.34 8.631-26.81-11.942-55.16-39.984-55.16"
/>
</svg>
